<svg width="16" height="16" viewBox="0 0 16 16" fill="none" xmlns="http://www.w3.org/2000/svg">
<g clip-path="url(#clip0_11_305)">
<path d="M14.0456 6.17139C14.4799 6.55996 14.8456 6.9371 15.1199 7.23424C15.3094 7.44424 15.4143 7.71708 15.4143 7.99996C15.4143 8.28284 15.3094 8.55567 15.1199 8.76567C13.9199 10.0571 11.1884 12.5714 7.99987 12.5714H7.54272" stroke="#565757" stroke-width="1.71429" stroke-linecap="round" stroke-linejoin="round"/>
<path d="M4.42275 11.577C3.0989 10.8356 1.90272 9.88638 0.879894 8.76561C0.690362 8.55561 0.585449 8.28278 0.585449 7.9999C0.585449 7.71701 0.690362 7.44418 0.879894 7.23418C2.07989 5.94275 4.81132 3.42847 7.99989 3.42847C9.25678 3.45474 10.4869 3.79665 11.577 4.42275" stroke="#565757" stroke-width="1.71429" stroke-linecap="round" stroke-linejoin="round"/>
<path d="M14.2855 1.71423L1.71411 14.2857" stroke="#565757" stroke-width="1.71429" stroke-linecap="round" stroke-linejoin="round"/>
<path d="M6.3884 9.61138C5.95915 9.18469 5.71666 8.60518 5.71411 7.99995C5.71411 7.39374 5.95493 6.81236 6.38358 6.3837C6.81224 5.95505 7.39362 5.71423 7.99983 5.71423C8.60506 5.71679 9.18457 5.95928 9.61125 6.38852" stroke="#565757" stroke-width="1.71429" stroke-linecap="round" stroke-linejoin="round"/>
<path d="M9.98854 9.14282C9.78509 9.4906 9.49333 9.77841 9.14282 9.97711" stroke="#565757" stroke-width="1.71429" stroke-linecap="round" stroke-linejoin="round"/>
</g>
<defs>
<clipPath id="clip0_11_305">
<rect width="16" height="16" fill="white"/>
</clipPath>
</defs>
</svg>
