<svg width="75" height="75" viewBox="0 0 75 75" fill="none" xmlns="http://www.w3.org/2000/svg">
<path d="M37.568 50.5589C28.3278 43.58 18.0881 34.1942 18.0881 19.775C18.0881 15.3348 20.9851 11.7354 24.5587 11.7354C28.0617 11.7354 30.9145 15.1939 31.0259 19.5127H31.0327C31.1441 15.1939 33.997 11.7354 37.4999 11.7354C41.0028 11.7354 43.8557 15.1939 43.9671 19.5127H43.9739C44.0853 15.1939 46.9381 11.7354 50.4411 11.7354C54.0147 11.7354 56.9117 15.3348 56.9117 19.775C56.9117 34.275 46.9305 43.4876 37.568 50.5589Z" fill="#CAF0F8"/>
<path d="M35.3823 24.0882C34.505 23.1471 33.0829 23.147 32.2058 24.088" stroke="#03045E" stroke-width="0.451765" stroke-linecap="round"/>
<path d="M42.7941 24.0882C41.9169 23.1471 40.4947 23.147 39.6177 24.088" stroke="#03045E" stroke-width="0.451765" stroke-linecap="round"/>
<path d="M34.853 29.3823C36.3151 30.7939 38.6854 30.7941 40.1471 29.3827" stroke="#03045E" stroke-width="0.451765" stroke-linecap="round"/>
<path d="M38.9117 30.7942C38.9117 32.1587 38.2796 33.2648 37.4999 33.2648C36.7202 33.2648 36.0881 32.1587 36.0881 30.7942H38.9117Z" fill="#03045E"/>
<path d="M71.9118 47.2942C67.1118 47.2942 63.2206 43.403 63.2206 38.603C63.2206 33.803 59.3294 29.9119 54.5294 29.9119H51" stroke="#CAF0F8" stroke-width="1.12941"/>
<path d="M3.08813 12.5293C7.88814 12.5293 11.7793 16.4205 11.7793 21.2205C11.7793 26.0205 15.6705 29.9117 20.4705 29.9117H23.9999" stroke="#CAF0F8" stroke-width="1.12941"/>
<path d="M24.2646 57.8823L17.2058 63.1764H24.2646V57.8823Z" fill="#CAF0F8"/>
<path d="M22.5 63.1766V55.5001C22.5 49.6524 27.2405 44.9119 33.0882 44.9119H33.7941" stroke="#CAF0F8" stroke-width="1.12941"/>
<path d="M55.7646 56.1177L61.0588 63.1765V56.1177H55.7646Z" fill="#CAF0F8"/>
<path d="M61.0589 57.8824H53.3824C47.5347 57.8824 42.7942 53.1419 42.7942 47.2942V42.353" stroke="#CAF0F8" stroke-width="1.12941"/>
</svg>
