<svg width="75" height="75" viewBox="0 0 75 75" fill="none" xmlns="http://www.w3.org/2000/svg">
<path d="M61.0264 36.7669L37.0264 5.18799L13.0264 36.7669L37.0264 68.3459L61.0264 36.7669Z" fill="#CAF0F8"/>
<path d="M33.6992 39.9248C35.568 41.7291 38.5976 41.7293 40.4661 39.9253L33.6992 39.9248Z" stroke="#03045E" stroke-width="0.577444" stroke-linecap="round" stroke-linejoin="round"/>
<path d="M33.0919 34.1484C33.5834 33.787 34.2927 33.2214 34.5883 32.7691C34.8095 32.4311 34.8814 32.0124 34.7852 31.6231C34.5796 30.7363 33.4415 30.3739 32.7326 30.9682C32.6928 31.0013 32.656 31.0382 32.6182 31.076C32.6029 31.0914 32.5873 31.107 32.5713 31.1226C32.5553 31.107 32.5397 31.0914 32.5243 31.076C32.4866 31.0382 32.4498 31.0013 32.4099 30.9682C31.7011 30.3739 30.5629 30.7363 30.3574 31.6231C30.2612 32.0124 30.3332 32.4311 30.5543 32.7691C30.8499 33.2214 31.5592 33.787 32.0507 34.1484C32.1102 34.1921 32.2163 34.2664 32.3173 34.3364C32.4702 34.4423 32.6725 34.4423 32.8253 34.3364C32.9262 34.2664 33.0324 34.1921 33.0919 34.1484Z" fill="#03045E"/>
<path d="M42.1146 34.1484C42.6061 33.787 43.3154 33.2214 43.611 32.7691C43.8322 32.4311 43.9041 32.0124 43.8079 31.6231C43.6023 30.7363 42.4642 30.3739 41.7553 30.9682C41.7155 31.0013 41.6787 31.0382 41.6409 31.076C41.6256 31.0914 41.61 31.107 41.594 31.1226C41.578 31.107 41.5624 31.0914 41.547 31.076C41.5093 31.0382 41.4726 31.0013 41.4326 30.9682C40.7238 30.3739 39.5856 30.7363 39.3801 31.6231C39.2839 32.0124 39.3559 32.4311 39.577 32.7691C39.8726 33.2214 40.5819 33.787 41.0734 34.1484C41.1329 34.1921 41.239 34.2664 41.34 34.3364C41.4929 34.4423 41.6952 34.4423 41.848 34.3364C41.9489 34.2664 42.0551 34.1921 42.1146 34.1484Z" fill="#03045E"/>
<path d="M57.688 64.6804L66.7105 71.4473H57.688V64.6804Z" fill="#CAF0F8"/>
<path d="M59.9436 71.4474V54.9248L39.5864 61.6917" stroke="#CAF0F8" stroke-width="1.44361" stroke-linejoin="round"/>
<path d="M55.094 34.5114L64.906 3.72192" stroke="#CAF0F8" stroke-width="1.44361" stroke-linejoin="round"/>
<path d="M17.9888 34.5114L8.17676 3.72192" stroke="#CAF0F8" stroke-width="1.44361" stroke-linejoin="round"/>
<path d="M17.9886 58.6466L8.96606 51.8796H17.9886V58.6466Z" fill="#CAF0F8"/>
<path d="M15.7332 51.8796V68.4022L36.0903 61.6353" stroke="#CAF0F8" stroke-width="1.44361" stroke-linejoin="round"/>
</svg>
