<svg width="20" height="20" viewBox="0 0 20 20" fill="none" xmlns="http://www.w3.org/2000/svg">
<path d="M6.42852 0.714355H2.1428C1.35383 0.714355 0.714233 1.35395 0.714233 2.14293V6.42864C0.714233 7.21762 1.35383 7.85721 2.1428 7.85721H6.42852C7.2175 7.85721 7.85709 7.21762 7.85709 6.42864V2.14293C7.85709 1.35395 7.2175 0.714355 6.42852 0.714355Z" stroke="#01080D" stroke-width="1.71429" stroke-linecap="round" stroke-linejoin="round"/>
<path d="M17.8571 0.714355H13.5714C12.7824 0.714355 12.1428 1.35395 12.1428 2.14293V6.42864C12.1428 7.21762 12.7824 7.85721 13.5714 7.85721H17.8571C18.6461 7.85721 19.2857 7.21762 19.2857 6.42864V2.14293C19.2857 1.35395 18.6461 0.714355 17.8571 0.714355Z" stroke="#01080D" stroke-width="1.71429" stroke-linecap="round" stroke-linejoin="round"/>
<path d="M6.42852 12.1428H2.1428C1.35383 12.1428 0.714233 12.7824 0.714233 13.5714V17.8571C0.714233 18.6461 1.35383 19.2857 2.1428 19.2857H6.42852C7.2175 19.2857 7.85709 18.6461 7.85709 17.8571V13.5714C7.85709 12.7824 7.2175 12.1428 6.42852 12.1428Z" stroke="#01080D" stroke-width="1.71429" stroke-linecap="round" stroke-linejoin="round"/>
<path d="M17.8571 12.1428H13.5714C12.7824 12.1428 12.1428 12.7824 12.1428 13.5714V17.8571C12.1428 18.6461 12.7824 19.2857 13.5714 19.2857H17.8571C18.6461 19.2857 19.2857 18.6461 19.2857 17.8571V13.5714C19.2857 12.7824 18.6461 12.1428 17.8571 12.1428Z" stroke="#01080D" stroke-width="1.71429" stroke-linecap="round" stroke-linejoin="round"/>
</svg>
