<svg width="16" height="16" viewBox="0 0 16 16" fill="none" xmlns="http://www.w3.org/2000/svg">
<g clip-path="url(#clip0_11_368)">
<path d="M1.71439 2.85718C1.41129 2.85718 1.1206 2.97759 0.906268 3.19191C0.691941 3.40624 0.571533 3.69693 0.571533 4.00003V14.2857C0.571533 14.5889 0.691941 14.8795 0.906268 15.0939C1.1206 15.3082 1.41129 15.4286 1.71439 15.4286H14.2858C14.5889 15.4286 14.8796 15.3082 15.0939 15.0939C15.3083 14.8795 15.4287 14.5889 15.4287 14.2857V4.00003C15.4287 3.69693 15.3083 3.40624 15.0939 3.19191C14.8796 2.97759 14.5889 2.85718 14.2858 2.85718H12.0001" stroke="#565757" stroke-width="1.71429" stroke-linecap="round" stroke-linejoin="round"/>
<path d="M4 0.571411V5.14284" stroke="#565757" stroke-width="1.71429" stroke-linecap="round" stroke-linejoin="round"/>
<path d="M12 0.571411V5.14284" stroke="#565757" stroke-width="1.71429" stroke-linecap="round" stroke-linejoin="round"/>
<path d="M4 2.85718H9.71429" stroke="#565757" stroke-width="1.71429" stroke-linecap="round" stroke-linejoin="round"/>
<path d="M7.3715 6.13715C7.4207 6.01043 7.50705 5.90155 7.61922 5.82477C7.73139 5.74799 7.86414 5.70691 8.00007 5.70691C8.136 5.70691 8.26876 5.74799 8.38093 5.82477C8.4931 5.90155 8.57945 6.01043 8.62864 6.13715L9.36007 8H11.3144C11.4421 8.00976 11.5646 8.05512 11.668 8.13096C11.7713 8.2068 11.8513 8.31007 11.8989 8.42906C11.9465 8.54806 11.9597 8.678 11.9372 8.80417C11.9147 8.93034 11.8573 9.04767 11.7715 9.14286L10.0458 10.6971L10.7772 12.16C10.8434 12.2884 10.8659 12.435 10.8411 12.5773C10.8163 12.7197 10.7458 12.85 10.6401 12.9486C10.5351 13.0484 10.4017 13.113 10.2583 13.1335C10.115 13.1539 9.96877 13.1293 9.84007 13.0629L8.00007 12.0571L6.16007 13.0629C6.03137 13.1293 5.88519 13.1539 5.74182 13.1335C5.59846 13.113 5.46503 13.0484 5.36007 12.9486C5.25439 12.85 5.1838 12.7197 5.15904 12.5773C5.13428 12.435 5.15672 12.2884 5.22293 12.16L5.95436 10.6971L4.22864 9.14286C4.14283 9.04767 4.08542 8.93034 4.06291 8.80417C4.0404 8.678 4.05369 8.54806 4.10129 8.42906C4.14889 8.31007 4.22888 8.2068 4.33219 8.13096C4.4355 8.05512 4.558 8.00976 4.68579 8H6.64007L7.3715 6.13715Z" stroke="#565757" stroke-width="1.71429" stroke-linecap="round" stroke-linejoin="round"/>
</g>
<defs>
<clipPath id="clip0_11_368">
<rect width="16" height="16" fill="white"/>
</clipPath>
</defs>
</svg>
